/* XPM */
static char * bsd_xpm[] = {
"48 48 695 2",
"  	c None",
". 	c #373636",
"+ 	c #363534",
"@ 	c #2E2D2C",
"# 	c #433E3E",
"$ 	c #554D4D",
"% 	c #3A3837",
"& 	c #4F4746",
"* 	c #534C4B",
"= 	c #363535",
"- 	c #554C4C",
"; 	c #6C5F5E",
"> 	c #303030",
", 	c #393332",
"' 	c #605554",
") 	c #383535",
"! 	c #6B5E5D",
"~ 	c #7B6B6A",
"{ 	c #746968",
"] 	c #181817",
"^ 	c #4B4241",
"/ 	c #726463",
"( 	c #313131",
"_ 	c #323130",
": 	c #363434",
"< 	c #423F3E",
"[ 	c #504B4B",
"} 	c #313030",
"| 	c #514949",
"1 	c #816F6E",
"2 	c #867371",
"3 	c #222322",
"4 	c #1D1C1C",
"5 	c #574C4B",
"6 	c #716362",
"7 	c #2D2D2C",
"8 	c #1A1A1A",
"9 	c #191918",
"0 	c #252424",
"a 	c #383434",
"b 	c #4D4544",
"c 	c #5B5150",
"d 	c #6E5F5F",
"e 	c #6D5E5E",
"f 	c #463F3E",
"g 	c #353434",
"h 	c #262423",
"i 	c #4A4342",
"j 	c #776767",
"k 	c #8C7877",
"l 	c #776968",
"m 	c #121212",
"n 	c #201F1F",
"o 	c #5E5251",
"p 	c #726462",
"q 	c #1C1C1C",
"r 	c #151615",
"s 	c #212020",
"t 	c #353130",
"u 	c #423C3B",
"v 	c #383333",
"w 	c #332E2E",
"x 	c #483F3E",
"y 	c #4B4140",
"z 	c #716061",
"A 	c #665959",
"B 	c #5D5151",
"C 	c #635757",
"D 	c #524949",
"E 	c #655757",
"F 	c #8A7574",
"G 	c #847270",
"H 	c #0E0E0E",
"I 	c #1E1E1E",
"J 	c #4E4544",
"K 	c #7D6B69",
"L 	c #6D5F5E",
"M 	c #635857",
"N 	c #716463",
"O 	c #363130",
"P 	c #22201F",
"Q 	c #383332",
"R 	c #504544",
"S 	c #453D3C",
"T 	c #322E2E",
"U 	c #6C5D5D",
"V 	c #84706E",
"W 	c #796867",
"X 	c #766564",
"Y 	c #897574",
"Z 	c #786A69",
"` 	c #857977",
" .	c #736463",
"..	c #816E6D",
"+.	c #8B7775",
"@.	c #1A1B1B",
"#.	c #332F2E",
"$.	c #665958",
"%.	c #887372",
"&.	c #8C7775",
"*.	c #857170",
"=.	c #786766",
"-.	c #49403F",
";.	c #504645",
">.	c #534948",
",.	c #463E3D",
"'.	c #5D5251",
").	c #736362",
"!.	c #7F7676",
"~.	c #A49E9B",
"{.	c #958E8A",
"].	c #786665",
"^.	c #736B69",
"/.	c #C7C6BF",
"(.	c #9C9692",
"_.	c #706160",
":.	c #726261",
"<.	c #81706F",
"[.	c #141515",
"}.	c #171818",
"|.	c #3C3635",
"1.	c #625453",
"2.	c #766463",
"3.	c #7E6B6A",
"4.	c #6D5E5D",
"5.	c #524746",
"6.	c #514746",
"7.	c #5F5352",
"8.	c #836F6E",
"9.	c #685F5F",
"0.	c #AAA5A3",
"a.	c #D3D1C9",
"b.	c #D7D6CF",
"c.	c #958C88",
"d.	c #7F6E6D",
"e.	c #BDBBB5",
"f.	c #DBDBD3",
"g.	c #9C9491",
"h.	c #5D5150",
"i.	c #6D6160",
"j.	c #2A2A2A",
"k.	c #141414",
"l.	c #181818",
"m.	c #191A1A",
"n.	c #2B2828",
"o.	c #534847",
"p.	c #4F4544",
"q.	c #544948",
"r.	c #756564",
"s.	c #7A6766",
"t.	c #787171",
"u.	c #C2BDB9",
"v.	c #D3D2CA",
"w.	c #D5D5CD",
"x.	c #DCDCD7",
"y.	c #837573",
"z.	c #A39B96",
"A.	c #E4E4DD",
"B.	c #D1D0CB",
"C.	c #837976",
"D.	c #151616",
"E.	c #1D1D1D",
"F.	c #252323",
"G.	c #393433",
"H.	c #3A3534",
"I.	c #473E3D",
"J.	c #4E4443",
"K.	c #5C504F",
"L.	c #83706F",
"M.	c #746260",
"N.	c #837D7D",
"O.	c #C9C5C0",
"P.	c #D3D2C9",
"Q.	c #D2D2C8",
"R.	c #DEDED9",
"S.	c #ADA8A2",
"T.	c #887C79",
"U.	c #D3D3CC",
"V.	c #D0D0C9",
"W.	c #A7A29D",
"X.	c #57504E",
"Y.	c #212121",
"Z.	c #131414",
"`.	c #161717",
" +	c #181919",
".+	c #1E1D1C",
"++	c #211F1E",
"@+	c #3D3736",
"#+	c #514645",
"$+	c #635655",
"%+	c #8D7876",
"&+	c #6D5D5C",
"*+	c #837E7E",
"=+	c #CBC7C1",
"-+	c #D3D3CA",
";+	c #D2D2C9",
">+	c #82817D",
",+	c #969490",
"'+	c #6F6563",
")+	c #7B7873",
"!+	c #51504F",
"~+	c #93918D",
"{+	c #685F5D",
"]+	c #1F1E1E",
"^+	c #161616",
"/+	c #3E3837",
"(+	c #524747",
"_+	c #6A5B5A",
":+	c #8F7A78",
"<+	c #705E5D",
"[+	c #837C7D",
"}+	c #CAC6C0",
"|+	c #D6D6CD",
"1+	c #B6B5AE",
"2+	c #0A0A0A",
"3+	c #767674",
"4+	c #2B2726",
"5+	c #605A57",
"6+	c #242424",
"7+	c #333231",
"8+	c #4D4443",
"9+	c #0F0F0F",
"0+	c #544847",
"a+	c #70605F",
"b+	c #816D6C",
"c+	c #7B7474",
"d+	c #C4C0BB",
"e+	c #D8D7CE",
"f+	c #93928C",
"g+	c #080808",
"h+	c #201C1C",
"i+	c #4E4444",
"j+	c #0B0A0B",
"k+	c #625555",
"l+	c #615655",
"m+	c #0E0F0E",
"n+	c #1B1A1A",
"o+	c #3B3534",
"p+	c #897573",
"q+	c #907A78",
"r+	c #665C5C",
"s+	c #AEA9A6",
"t+	c #D6D5CC",
"u+	c #AAA9A2",
"v+	c #050405",
"w+	c #201C1D",
"x+	c #685859",
"y+	c #4A4040",
"z+	c #584C4B",
"A+	c #8A7675",
"B+	c #907B7A",
"C+	c #685D5C",
"D+	c #111111",
"E+	c #0D0D0D",
"F+	c #342F2E",
"G+	c #645655",
"H+	c #826F6E",
"I+	c #6C5C5B",
"J+	c #7F7A7A",
"K+	c #C7C5BE",
"L+	c #D5D4CB",
"M+	c #3E3E3C",
"N+	c #0E0C0D",
"O+	c #423839",
"P+	c #7E6A6A",
"Q+	c #7D6A69",
"R+	c #7F6C6B",
"S+	c #897674",
"T+	c #181819",
"U+	c #0C0C0C",
"V+	c #191A19",
"W+	c #2A2726",
"X+	c #564B4A",
"Y+	c #756463",
"Z+	c #6E5F5E",
"`+	c #4F4545",
" @	c #706866",
".@	c #928C88",
"+@	c #7A7470",
"@@	c #322B2C",
"#@	c #615455",
"$@	c #8E7977",
"%@	c #927C7A",
"&@	c #8B7675",
"*@	c #8B7674",
"=@	c #937E7C",
"-@	c #4D4646",
";@	c #7F7E75",
">@	c #6C6B67",
",@	c #0B0B0B",
"'@	c #0E0F0F",
")@	c #171717",
"!@	c #21201F",
"~@	c #453C3B",
"{@	c #665756",
"]@	c #8D7776",
"^@	c #917A79",
"/@	c #8A7473",
"(@	c #7F6A69",
"_@	c #756363",
":@	c #494040",
"<@	c #474040",
"[@	c #726160",
"}@	c #8C7978",
"|@	c #706E64",
"1@	c #888573",
"2@	c #949284",
"3@	c #121313",
"4@	c #1A1B1A",
"5@	c #6F5F5E",
"6@	c #8E7877",
"7@	c #8F7977",
"8@	c #716161",
"9@	c #766666",
"0@	c #796868",
"a@	c #5F5252",
"b@	c #6B5D5C",
"c@	c #897676",
"d@	c #766969",
"e@	c #8B897C",
"f@	c #878680",
"g@	c #151515",
"h@	c #242222",
"i@	c #423B3A",
"j@	c #3E3737",
"k@	c #373131",
"l@	c #615555",
"m@	c #7F6C6C",
"n@	c #8B7574",
"o@	c #8C7777",
"p@	c #706060",
"q@	c #584F4F",
"r@	c #615757",
"s@	c #645C5C",
"t@	c #7A7869",
"u@	c #95938B",
"v@	c #878471",
"w@	c #8F8C7B",
"x@	c #2C2929",
"y@	c #4E4545",
"z@	c #605555",
"A@	c #524847",
"B@	c #322D2D",
"C@	c #484040",
"D@	c #7D6A6A",
"E@	c #7E6C6C",
"F@	c #675959",
"G@	c #4B4444",
"H@	c #4A4645",
"I@	c #726F5F",
"J@	c #949387",
"K@	c #78766E",
"L@	c #8A8775",
"M@	c #6C695A",
"N@	c #1B1C1C",
"O@	c #282626",
"P@	c #4A4343",
"Q@	c #554B4C",
"R@	c #615656",
"S@	c #6F6060",
"T@	c #4D4343",
"U@	c #3E3636",
"V@	c #453E3E",
"W@	c #4B4343",
"X@	c #433D3C",
"Y@	c #3E3938",
"Z@	c #6F6E66",
"`@	c #918E75",
" #	c #928F79",
".#	c #6A685B",
"+#	c #908F87",
"@#	c #74736D",
"##	c #252324",
"$#	c #413C3C",
"%#	c #4E4646",
"&#	c #4C4344",
"*#	c #534A4A",
"=#	c #574C4C",
"-#	c #574E4D",
";#	c #635858",
">#	c #8B7776",
",#	c #8D7978",
"'#	c #776E6A",
")#	c #979583",
"!#	c #817E6A",
"~#	c #83806B",
"{#	c #8D8B7C",
"]#	c #7B7869",
"^#	c #8B8976",
"/#	c #918F83",
"(#	c #1B1B1B",
"_#	c #494141",
":#	c #706161",
"<#	c #7A6867",
"[#	c #6E5E5D",
"}#	c #655756",
"|#	c #645656",
"1#	c #665858",
"2#	c #5C5656",
"3#	c #403B3C",
"4#	c #7C6B6B",
"5#	c #877372",
"6#	c #676057",
"7#	c #767361",
"8#	c #7E7B69",
"9#	c #858372",
"0#	c #817F6F",
"a#	c #797767",
"b#	c #635656",
"c#	c #8C7675",
"d#	c #897473",
"e#	c #8D7877",
"f#	c #746665",
"g#	c #393939",
"h#	c #3A3A3A",
"i#	c #2F2E2E",
"j#	c #756563",
"k#	c #81706D",
"l#	c #655E5D",
"m#	c #0F1010",
"n#	c #232121",
"o#	c #5C5151",
"p#	c #7A6A69",
"q#	c #867271",
"r#	c #8C7776",
"s#	c #625656",
"t#	c #3B3839",
"u#	c #373334",
"v#	c #685B5B",
"w#	c #8E7A79",
"x#	c #756867",
"y#	c #252525",
"z#	c #222020",
"A#	c #524A49",
"B#	c #574F4F",
"C#	c #7A6969",
"D#	c #887573",
"E#	c #554C4B",
"F#	c #272727",
"G#	c #3A3638",
"H#	c #534B4B",
"I#	c #806F6E",
"J#	c #877474",
"K#	c #746969",
"L#	c #1C1D1C",
"M#	c #4D4645",
"N#	c #3E3939",
"O#	c #484242",
"P#	c #907B79",
"Q#	c #917C7B",
"R#	c #917C7A",
"S#	c #8A7775",
"T#	c #4C4444",
"U#	c #292929",
"V#	c #312E2F",
"W#	c #4F4748",
"X#	c #5B5050",
"Y#	c #564C4C",
"Z#	c #504949",
"`#	c #131413",
" $	c #2C2B2B",
".$	c #423E3E",
"+$	c #4F4848",
"@$	c #776766",
"#$	c #3A3636",
"$$	c #2D2B2C",
"%$	c #4B4546",
"&$	c #7D6F6E",
"*$	c #111212",
"=$	c #191919",
"-$	c #1E1F1F",
";$	c #393637",
">$	c #564D4D",
",$	c #816F6F",
"'$	c #5F5454",
")$	c #464141",
"!$	c #141514",
"~$	c #212222",
"{$	c #2C2B2C",
"]$	c #3A3637",
"^$	c #464040",
"/$	c #524A4A",
"($	c #5D5454",
"_$	c #131312",
":$	c #171817",
"<$	c #1D1E1E",
"[$	c #2E2D2D",
"}$	c #3B3637",
"|$	c #3F393A",
"1$	c #453F40",
"2$	c #3A3535",
"3$	c #2D2D2D",
"4$	c #131313",
"5$	c #232220",
"6$	c #302F29",
"7$	c #2B2B27",
"8$	c #1C1C1B",
"9$	c #2B2829",
"0$	c #312D2E",
"a$	c #383334",
"b$	c #494142",
"c$	c #695B5B",
"d$	c #887574",
"e$	c #1F1F1E",
"f$	c #3E3D36",
"g$	c #5F5D4E",
"h$	c #686555",
"i$	c #4F4C44",
"j$	c #3B3737",
"k$	c #2E2A2B",
"l$	c #2E2A2A",
"m$	c #3F3837",
"n$	c #5C5050",
"o$	c #957E7C",
"p$	c #877472",
"q$	c #151514",
"r$	c #3C3A32",
"s$	c #706D5B",
"t$	c #525045",
"u$	c #393836",
"v$	c #3A3737",
"w$	c #423D3D",
"x$	c #7C6A6A",
"y$	c #8C7876",
"z$	c #726361",
"A$	c #2A2925",
"B$	c #202020",
"C$	c #343132",
"D$	c #4D4545",
"E$	c #6A5C5C",
"F$	c #7D6B6B",
"G$	c #232323",
"H$	c #1C1C1D",
"I$	c #141413",
"J$	c #222122",
"K$	c #2D2B2B",
"L$	c #363132",
"M$	c #453D3E",
"N$	c #504646",
"O$	c #443D3C",
"P$	c #393534",
"Q$	c #282829",
"R$	c #202121",
"S$	c #181918",
"T$	c #292A29",
"U$	c #252724",
"V$	c #1D1E1D",
"W$	c #222925",
"X$	c #29322D",
"Y$	c #1E1E1D",
"Z$	c #212221",
"`$	c #404842",
" %	c #47524A",
".%	c #2F3531",
"+%	c #333333",
"@%	c #222223",
"#%	c #2C2C2C",
"$%	c #2F2F2E",
"%%	c #3D3F3D",
"&%	c #4C514C",
"*%	c #48534A",
"=%	c #39453D",
"-%	c #45534A",
";%	c #546158",
">%	c #272C28",
",%	c #3F4D44",
"'%	c #637267",
")%	c #6E7A70",
"!%	c #515852",
"~%	c #2E2E2D",
"{%	c #2E2E2E",
"]%	c #2B2B2B",
"^%	c #262626",
"/%	c #2B2C2C",
"(%	c #252625",
"_%	c #555454",
":%	c #5F615E",
"<%	c #3B453D",
"[%	c #445048",
"}%	c #5E685F",
"|%	c #5C675E",
"1%	c #3F4942",
"2%	c #3C473F",
"3%	c #455149",
"4%	c #515F55",
"5%	c #6A756B",
"6%	c #606860",
"7%	c #636A62",
"8%	c #60665F",
"9%	c #474A45",
"0%	c #222221",
"a%	c #373736",
"b%	c #2B2C2B",
"c%	c #333432",
"d%	c #434842",
"e%	c #485149",
"f%	c #3F4A42",
"g%	c #3A443D",
"h%	c #354039",
"i%	c #343F38",
"j%	c #4D5A51",
"k%	c #48554C",
"l%	c #3E4740",
"m%	c #494D48",
"n%	c #666661",
"o%	c #61625C",
"p%	c #545A52",
"q%	c #434741",
"r%	c #525151",
"s%	c #B1AFAD",
"t%	c #D4D2CD",
"u%	c #D6D5D0",
"v%	c #B8B6B2",
"w%	c #393A3A",
"x%	c #333532",
"y%	c #373936",
"z%	c #474C46",
"A%	c #4F594F",
"B%	c #455148",
"C%	c #414E45",
"D%	c #425248",
"E%	c #435248",
"F%	c #3C3D39",
"G%	c #848081",
"H%	c #CFCCC8",
"I%	c #E0DFD8",
"J%	c #DFDED7",
"K%	c #DADAD3",
"L%	c #ADABA7",
"M%	c #7A7676",
"N%	c #B5B2B0",
"O%	c #DAD8D3",
"P%	c #E0DED8",
"Q%	c #E1DFD9",
"R%	c #DCDAD4",
"S%	c #CBC8C4",
"T%	c #B0ACAA",
"U%	c #4A4B4E",
"V%	c #4B4D50",
"W%	c #3B3D3E",
"X%	c #323232",
"Y%	c #353634",
"Z%	c #3A3D39",
"`%	c #434742",
" &	c #4E564D",
".&	c #535C53",
"+&	c #414740",
"@&	c #575557",
"#&	c #A4A2A2",
"$&	c #D7D6D1",
"%&	c #DEDED7",
"&&	c #DDDCD6",
"*&	c #DCDCD6",
"=&	c #E2E1DB",
"-&	c #B9B6B2",
";&	c #8A8787",
">&	c #969494",
",&	c #C2BEBB",
"'&	c #CDCAC6",
")&	c #D0CDC9",
"!&	c #D2CFCA",
"~&	c #B5B1AF",
"{&	c #474648",
"]&	c #4F5053",
"^&	c #505255",
"/&	c #434548",
"(&	c #3E4042",
"_&	c #3A3B3D",
":&	c #383939",
"<&	c #3B3D3C",
"[&	c #38393A",
"}&	c #504F52",
"|&	c #787577",
"1&	c #A7A5A3",
"2&	c #C1BFBB",
"3&	c #C7C5C1",
"4&	c #C9C7C3",
"5&	c #CAC7C3",
"6&	c #D2CECA",
"7&	c #888585",
"8&	c #868484",
"9&	c #C5C2BF",
"0&	c #D0CEC9",
"a&	c #C4C1BD",
"b&	c #A7A3A0",
"c&	c #505154",
"d&	c #525457",
"e&	c #4E4F53",
"f&	c #494B4E",
"g&	c #5E5D5F",
"h&	c #A29F9D",
"i&	c #B4B1AE",
"j&	c #BDBAB7",
"k&	c #C8C5C1",
"l&	c #C2BFBC",
"                                                                                                ",
"                                                                                                ",
"                                  . +                                                           ",
"                                    @ # $                                                       ",
"    % & *                             = - ;                                                     ",
"  > , '                                 ) ! ~ {                                                 ",
"  ] ^ /                 ( _ : < [       } | 1 2                                                 ",
"3 4 5 6           7 8 9 0 a b c d e f g h i j k l                                               ",
"m n o p         q r s t u v w x y z A B C D E F G                                               ",
"H I J K L M N O P s Q R S T U V W X Y Z `  .E ..+.                                              ",
"H @.#.$.%.&.*.=.-.S ;.>.,.'.).!.~.{.].^./.(._.:.<.                                              ",
"[.}.q |.1.2.3.4.5.;.6.5.7.8.9.0.a.b.c.d.e.f.g.h.i.                                              ",
"j.k.l.m.n.-.o.5.p.;.R q.r.s.t.u.v.w.x.y.z.A.B.C.|                                               ",
"  q D.}.}.E.F.G.H.I.J.K.L.M.N.O.P.Q.R.S.T.U.V.W.X.                                              ",
"    Y.Z.`.}. +.+++@+#+$+%+&+*+=+-+;+>+,+'+)+!+~+{+                                              ",
"      ]+^+[.Z.D.4 /+(+_+:+<+[+}+|+1+2+3+4+5+6+7+8+                                              ",
"          k.9+`..+/+0+a+:+b+c+d+e+f+g+]+h+i+9+j+k+l+                                            ",
"          m+H }.n+o+o._+p+q+r+s+t+u+v+2+w+x+y+z+A+B+C+                                          ",
"          D+E+`.8 F+(+G+H+%+I+J+K+L+M+N+O+P+%.Q+R+:+S+                                          ",
"          T+U+k.V+W+;.X+E Y+Z+`+ @.@+@@@#@$@%@&@].*@=@-@    ;@>@                                ",
"            ,@'@)@!@~@#+{@*.]@^@/@(@_@:@<@4.[@Z+R+:+}@  |@1@2@                                  ",
"            9 ,@3@4@w #+5@%.F 6@7@7@/@Y+8@9@0@a@b@c@d@  e@      f@                              ",
"              m U+g@h@i@^ j@k@l@m@&@]@n@/@o@p@q@r@s@  t@u@    v@w@                              ",
"                ^+D+@.x@y@z@A@B@C@A j D@E@F@G@H@      I@J@K@L@M@                                ",
"                  N@`.O@P@Q@R@S@T@U@V@W@X@Y@          Z@`@ #.#        +#@#                      ",
"                    ^+##$#%#&#P@*#B =#-#      ;#>#,#'#)#!#~#{#    ]#^#/#                        ",
"                    (#_#:#<#<#[#}#|#1#2#      3#4#5#6#7#    8#9#0#a#                            ",
"                  4@s b#c#%.d#*@e#7@6@f#  g#h#i#D j#k#l#                                        ",
"                  m#n#o#p#q#d#6@r#[@b@s#t#j.t#u#v#w#%@x#                                        ",
"                y#9+z#A#B#! C#$.b@D#=@,#E#F#G#) H#I#J#K#                                        ",
"                L#m Y.G@M#N#O#e P#Q#R#S#T#U#V#W#X#Y#Z#                                          ",
"                `#k.m. $.$+$;#j r#%@R#P#@$#$$$%$&$                                              ",
"                k.*$=$-$U#;$O#>$; ,$>#,#1 '$)$                                                  ",
"                } !$)@@.~${$]$^$/$($R@R@q@)$                                                    ",
"                  _$r :$l.<$[$}$|$1$O#|$2$<@                                                    ",
"                3$4$q 5$6$7$8$Y.9$0$a$b$c$d$                                                    ",
"                e$q f$g$h$i$j$k$l$m$n$8.o$p$                                                    ",
"                q$r$s$t$u$v$w$Q@d x$F %@y$z$                                                    ",
"              8 _$] A$B$F#C$#$D$E$F$&@r#W                                                       ",
"            G$H$I$!$r g@}.J$K$L$M$y@N$O$P$                                                      ",
"          j.Q$R$S$8$T$U$V$S$W$X$Y$Z$`$ %.%                                                      ",
"      +%T$Q$@%E.#%$%%%&%*%=%-%;%>%,%'%)%!%                                                      ",
"~%{%]%^%/%{%      (%_%:%<%[%}%|%1%2%3%4%5%6%7%8%9%<                                             ",
"0%$%a%          j.b%c%d%e%f%g%h%i%j%k%l%m%n%o%p%q%r%s%t%u%B.v%                                  ",
"                w%> x%y%z%A%B%C%D%E%F%G%H%I%J%K%L%M%N%O%P%Q%R%S%T%                              ",
"                U%V%W%X%Y%Z%`% &.&+&@&#&$&%&&&*&=&-&;&>&,&'&)&!&~&                              ",
"                  {&]&^&/&(&_&:&<&[&}&|&1&2&3&4&5&6&7&8&9&0&a&b&                                ",
"                        c&d&]&c&e&f&f&g&h&i&j&k&)&l&                                            "};
