/* XPM */
static char * flv_xterm_xpm[] = {
"48 48 770 2",
"  	c None",
". 	c #8E7370",
"+ 	c #8F7570",
"@ 	c #8F7770",
"# 	c #8E7770",
"$ 	c #8E7670",
"% 	c #8E7470",
"& 	c #8F7370",
"* 	c #8F7670",
"= 	c #8E7270",
"- 	c #8F7C70",
"; 	c #8F7B70",
"> 	c #8F7470",
", 	c #8F7870",
"' 	c #373636",
") 	c #363534",
"! 	c #67626F",
"~ 	c #69646A",
"{ 	c #65606A",
"] 	c #6D6F87",
"^ 	c #645F6D",
"/ 	c #666067",
"( 	c #574D5A",
"_ 	c #2E2D2C",
": 	c #433E3E",
"< 	c #554D4D",
"[ 	c #6C748B",
"} 	c #6A6B87",
"| 	c #6A6A86",
"1 	c #6E7288",
"2 	c #73727C",
"3 	c #676066",
"4 	c #6F7187",
"5 	c #6A6A87",
"6 	c #6A656E",
"7 	c #716F7C",
"8 	c #6C7088",
"9 	c #696987",
"0 	c #6C748A",
"a 	c #3A3837",
"b 	c #4F4746",
"c 	c #534C4B",
"d 	c #363535",
"e 	c #554C4C",
"f 	c #6C5F5E",
"g 	c #6B6F89",
"h 	c #6B6E88",
"i 	c #8F7970",
"j 	c #69636B",
"k 	c #625B68",
"l 	c #6D788B",
"m 	c #6A6C88",
"n 	c #6B7089",
"o 	c #303030",
"p 	c #393332",
"q 	c #605554",
"r 	c #383535",
"s 	c #6B5E5D",
"t 	c #7B6B6A",
"u 	c #746968",
"v 	c #6C738A",
"w 	c #716C6F",
"x 	c #6C646A",
"y 	c #6C7289",
"z 	c #181817",
"A 	c #4B4241",
"B 	c #726463",
"C 	c #313131",
"D 	c #323130",
"E 	c #363434",
"F 	c #423F3E",
"G 	c #504B4B",
"H 	c #313030",
"I 	c #514949",
"J 	c #816F6E",
"K 	c #867371",
"L 	c #767174",
"M 	c #6B6469",
"N 	c #8F7270",
"O 	c #222322",
"P 	c #1D1C1C",
"Q 	c #574C4B",
"R 	c #716362",
"S 	c #2D2D2C",
"T 	c #1A1A1A",
"U 	c #191918",
"V 	c #252424",
"W 	c #383434",
"X 	c #4D4544",
"Y 	c #5B5150",
"Z 	c #6E5F5F",
"` 	c #6D5E5E",
" .	c #463F3E",
"..	c #353434",
"+.	c #262423",
"@.	c #4A4342",
"#.	c #776767",
"$.	c #8C7877",
"%.	c #776968",
"&.	c #746E71",
"*.	c #6F6C76",
"=.	c #121212",
"-.	c #201F1F",
";.	c #5E5251",
">.	c #726462",
",.	c #1C1C1C",
"'.	c #151615",
").	c #212020",
"!.	c #353130",
"~.	c #423C3B",
"{.	c #383333",
"].	c #332E2E",
"^.	c #483F3E",
"/.	c #4B4140",
"(.	c #716061",
"_.	c #665959",
":.	c #5D5151",
"<.	c #635757",
"[.	c #524949",
"}.	c #655757",
"|.	c #8A7574",
"1.	c #847270",
"2.	c #675F66",
"3.	c #757481",
"4.	c #0E0E0E",
"5.	c #1E1E1E",
"6.	c #4E4544",
"7.	c #7D6B69",
"8.	c #6D5F5E",
"9.	c #635857",
"0.	c #716463",
"a.	c #363130",
"b.	c #22201F",
"c.	c #383332",
"d.	c #504544",
"e.	c #453D3C",
"f.	c #322E2E",
"g.	c #6C5D5D",
"h.	c #84706E",
"i.	c #796867",
"j.	c #766564",
"k.	c #897574",
"l.	c #786A69",
"m.	c #857977",
"n.	c #736463",
"o.	c #816E6D",
"p.	c #8B7775",
"q.	c #665F68",
"r.	c #665F65",
"s.	c #1A1B1B",
"t.	c #332F2E",
"u.	c #665958",
"v.	c #887372",
"w.	c #8C7775",
"x.	c #857170",
"y.	c #786766",
"z.	c #49403F",
"A.	c #504645",
"B.	c #534948",
"C.	c #463E3D",
"D.	c #5D5251",
"E.	c #736362",
"F.	c #7F7676",
"G.	c #A49E9B",
"H.	c #958E8A",
"I.	c #786665",
"J.	c #736B69",
"K.	c #C7C6BF",
"L.	c #9C9692",
"M.	c #706160",
"N.	c #726261",
"O.	c #81706F",
"P.	c #6E686C",
"Q.	c #736E71",
"R.	c #141515",
"S.	c #171818",
"T.	c #3C3635",
"U.	c #625453",
"V.	c #766463",
"W.	c #7E6B6A",
"X.	c #6D5E5D",
"Y.	c #524746",
"Z.	c #514746",
"`.	c #5F5352",
" +	c #836F6E",
".+	c #685F5F",
"++	c #AAA5A3",
"@+	c #D3D1C9",
"#+	c #D7D6CF",
"$+	c #958C88",
"%+	c #7F6E6D",
"&+	c #BDBBB5",
"*+	c #DBDBD3",
"=+	c #9C9491",
"-+	c #5D5150",
";+	c #6D6160",
">+	c #645E65",
",+	c #2A2A2A",
"'+	c #141414",
")+	c #181818",
"!+	c #191A1A",
"~+	c #2B2828",
"{+	c #534847",
"]+	c #4F4544",
"^+	c #544948",
"/+	c #756564",
"(+	c #7A6766",
"_+	c #787171",
":+	c #C2BDB9",
"<+	c #D3D2CA",
"[+	c #D5D5CD",
"}+	c #DCDCD7",
"|+	c #837573",
"1+	c #A39B96",
"2+	c #E4E4DD",
"3+	c #D1D0CB",
"4+	c #837976",
"5+	c #726C70",
"6+	c #151616",
"7+	c #1D1D1D",
"8+	c #252323",
"9+	c #393433",
"0+	c #3A3534",
"a+	c #473E3D",
"b+	c #4E4443",
"c+	c #5C504F",
"d+	c #83706F",
"e+	c #746260",
"f+	c #837D7D",
"g+	c #C9C5C0",
"h+	c #D3D2C9",
"i+	c #D2D2C8",
"j+	c #DEDED9",
"k+	c #ADA8A2",
"l+	c #887C79",
"m+	c #D3D3CC",
"n+	c #D0D0C9",
"o+	c #A7A29D",
"p+	c #57504E",
"q+	c #67616A",
"r+	c #212121",
"s+	c #131414",
"t+	c #161717",
"u+	c #181919",
"v+	c #1E1D1C",
"w+	c #211F1E",
"x+	c #3D3736",
"y+	c #514645",
"z+	c #635655",
"A+	c #8D7876",
"B+	c #6D5D5C",
"C+	c #837E7E",
"D+	c #CBC7C1",
"E+	c #D3D3CA",
"F+	c #D2D2C9",
"G+	c #82817D",
"H+	c #969490",
"I+	c #6F6563",
"J+	c #7B7873",
"K+	c #51504F",
"L+	c #93918D",
"M+	c #685F5D",
"N+	c #8E7970",
"O+	c #8C7070",
"P+	c #6C768B",
"Q+	c #6A6B88",
"R+	c #727485",
"S+	c #8E7B70",
"T+	c #1F1E1E",
"U+	c #161616",
"V+	c #3E3837",
"W+	c #524747",
"X+	c #6A5B5A",
"Y+	c #8F7A78",
"Z+	c #705E5D",
"`+	c #837C7D",
" @	c #CAC6C0",
".@	c #D6D6CD",
"+@	c #B6B5AE",
"@@	c #0A0A0A",
"#@	c #767674",
"$@	c #2B2726",
"%@	c #605A57",
"&@	c #242424",
"*@	c #333231",
"=@	c #4D4443",
"-@	c #707B8F",
";@	c #70738F",
">@	c #747686",
",@	c #787275",
"'@	c #0F0F0F",
")@	c #544847",
"!@	c #70605F",
"~@	c #816D6C",
"{@	c #7B7474",
"]@	c #C4C0BB",
"^@	c #D8D7CE",
"/@	c #93928C",
"(@	c #080808",
"_@	c #201C1C",
":@	c #4E4444",
"<@	c #0B0A0B",
"[@	c #625555",
"}@	c #615655",
"|@	c #736A6D",
"1@	c #695C63",
"2@	c #75676B",
"3@	c #837273",
"4@	c #0E0F0E",
"5@	c #1B1A1A",
"6@	c #3B3534",
"7@	c #897573",
"8@	c #907A78",
"9@	c #665C5C",
"0@	c #AEA9A6",
"a@	c #D6D5CC",
"b@	c #AAA9A2",
"c@	c #050405",
"d@	c #201C1D",
"e@	c #685859",
"f@	c #4A4040",
"g@	c #584C4B",
"h@	c #8A7675",
"i@	c #907B7A",
"j@	c #685D5C",
"k@	c #8E7570",
"l@	c #8F7170",
"m@	c #111111",
"n@	c #0D0D0D",
"o@	c #342F2E",
"p@	c #645655",
"q@	c #826F6E",
"r@	c #6C5C5B",
"s@	c #7F7A7A",
"t@	c #C7C5BE",
"u@	c #D5D4CB",
"v@	c #3E3E3C",
"w@	c #0E0C0D",
"x@	c #423839",
"y@	c #7E6A6A",
"z@	c #7D6A69",
"A@	c #7F6C6B",
"B@	c #897674",
"C@	c #181819",
"D@	c #0C0C0C",
"E@	c #191A19",
"F@	c #2A2726",
"G@	c #564B4A",
"H@	c #756463",
"I@	c #6E5F5E",
"J@	c #4F4545",
"K@	c #706866",
"L@	c #928C88",
"M@	c #7A7470",
"N@	c #322B2C",
"O@	c #615455",
"P@	c #8E7977",
"Q@	c #927C7A",
"R@	c #8B7675",
"S@	c #8B7674",
"T@	c #937E7C",
"U@	c #4D4646",
"V@	c #7F7E75",
"W@	c #6C6B67",
"X@	c #0B0B0B",
"Y@	c #0E0F0F",
"Z@	c #171717",
"`@	c #21201F",
" #	c #453C3B",
".#	c #665756",
"+#	c #8D7776",
"@#	c #917A79",
"##	c #8A7473",
"$#	c #7F6A69",
"%#	c #756363",
"&#	c #494040",
"*#	c #474040",
"=#	c #726160",
"-#	c #8C7978",
";#	c #706E64",
">#	c #888573",
",#	c #949284",
"'#	c #121313",
")#	c #1A1B1A",
"!#	c #6F5F5E",
"~#	c #8E7877",
"{#	c #8F7977",
"]#	c #716161",
"^#	c #766666",
"/#	c #796868",
"(#	c #5F5252",
"_#	c #6B5D5C",
":#	c #897676",
"<#	c #766969",
"[#	c #8B897C",
"}#	c #878680",
"|#	c #151515",
"1#	c #242222",
"2#	c #423B3A",
"3#	c #3E3737",
"4#	c #373131",
"5#	c #615555",
"6#	c #7F6C6C",
"7#	c #8B7574",
"8#	c #8C7777",
"9#	c #706060",
"0#	c #584F4F",
"a#	c #615757",
"b#	c #645C5C",
"c#	c #7A7869",
"d#	c #95938B",
"e#	c #878471",
"f#	c #8F8C7B",
"g#	c #2C2929",
"h#	c #4E4545",
"i#	c #605555",
"j#	c #524847",
"k#	c #322D2D",
"l#	c #484040",
"m#	c #7D6A6A",
"n#	c #7E6C6C",
"o#	c #675959",
"p#	c #4B4444",
"q#	c #4A4645",
"r#	c #726F5F",
"s#	c #949387",
"t#	c #78766E",
"u#	c #8A8775",
"v#	c #6C695A",
"w#	c #1B1C1C",
"x#	c #282626",
"y#	c #4A4343",
"z#	c #554B4C",
"A#	c #615656",
"B#	c #6F6060",
"C#	c #4D4343",
"D#	c #3E3636",
"E#	c #453E3E",
"F#	c #4B4343",
"G#	c #433D3C",
"H#	c #3E3938",
"I#	c #6F6E66",
"J#	c #918E75",
"K#	c #928F79",
"L#	c #6A685B",
"M#	c #908F87",
"N#	c #74736D",
"O#	c #252324",
"P#	c #413C3C",
"Q#	c #4E4646",
"R#	c #4C4344",
"S#	c #534A4A",
"T#	c #574C4C",
"U#	c #574E4D",
"V#	c #635858",
"W#	c #8B7776",
"X#	c #8D7978",
"Y#	c #776E6A",
"Z#	c #979583",
"`#	c #817E6A",
" $	c #83806B",
".$	c #8D8B7C",
"+$	c #7B7869",
"@$	c #8B8976",
"#$	c #918F83",
"$$	c #1B1B1B",
"%$	c #494141",
"&$	c #706161",
"*$	c #7A6867",
"=$	c #6E5E5D",
"-$	c #655756",
";$	c #645656",
">$	c #665858",
",$	c #5C5656",
"'$	c #403B3C",
")$	c #7C6B6B",
"!$	c #877372",
"~$	c #676057",
"{$	c #767361",
"]$	c #7E7B69",
"^$	c #858372",
"/$	c #817F6F",
"($	c #797767",
"_$	c #635656",
":$	c #8C7675",
"<$	c #897473",
"[$	c #8D7877",
"}$	c #746665",
"|$	c #393939",
"1$	c #3A3A3A",
"2$	c #2F2E2E",
"3$	c #756563",
"4$	c #81706D",
"5$	c #655E5D",
"6$	c #0F1010",
"7$	c #232121",
"8$	c #5C5151",
"9$	c #7A6A69",
"0$	c #867271",
"a$	c #8C7776",
"b$	c #625656",
"c$	c #3B3839",
"d$	c #373334",
"e$	c #685B5B",
"f$	c #8E7A79",
"g$	c #756867",
"h$	c #252525",
"i$	c #222020",
"j$	c #524A49",
"k$	c #574F4F",
"l$	c #7A6969",
"m$	c #887573",
"n$	c #554C4B",
"o$	c #272727",
"p$	c #3A3638",
"q$	c #534B4B",
"r$	c #806F6E",
"s$	c #877474",
"t$	c #746969",
"u$	c #1C1D1C",
"v$	c #4D4645",
"w$	c #3E3939",
"x$	c #484242",
"y$	c #907B79",
"z$	c #917C7B",
"A$	c #917C7A",
"B$	c #8A7775",
"C$	c #4C4444",
"D$	c #292929",
"E$	c #312E2F",
"F$	c #4F4748",
"G$	c #5B5050",
"H$	c #564C4C",
"I$	c #504949",
"J$	c #131413",
"K$	c #2C2B2B",
"L$	c #423E3E",
"M$	c #4F4848",
"N$	c #776766",
"O$	c #3A3636",
"P$	c #2D2B2C",
"Q$	c #4B4546",
"R$	c #7D6F6E",
"S$	c #111212",
"T$	c #191919",
"U$	c #1E1F1F",
"V$	c #393637",
"W$	c #564D4D",
"X$	c #816F6F",
"Y$	c #5F5454",
"Z$	c #464141",
"`$	c #141514",
" %	c #212222",
".%	c #2C2B2C",
"+%	c #3A3637",
"@%	c #464040",
"#%	c #524A4A",
"$%	c #5D5454",
"%%	c #131312",
"&%	c #171817",
"*%	c #1D1E1E",
"=%	c #2E2D2D",
"-%	c #3B3637",
";%	c #3F393A",
">%	c #453F40",
",%	c #3A3535",
"'%	c #2D2D2D",
")%	c #131313",
"!%	c #232220",
"~%	c #302F29",
"{%	c #2B2B27",
"]%	c #1C1C1B",
"^%	c #2B2829",
"/%	c #312D2E",
"(%	c #383334",
"_%	c #494142",
":%	c #695B5B",
"<%	c #887574",
"[%	c #1F1F1E",
"}%	c #3E3D36",
"|%	c #5F5D4E",
"1%	c #686555",
"2%	c #4F4C44",
"3%	c #3B3737",
"4%	c #2E2A2B",
"5%	c #2E2A2A",
"6%	c #3F3837",
"7%	c #5C5050",
"8%	c #957E7C",
"9%	c #877472",
"0%	c #151514",
"a%	c #3C3A32",
"b%	c #706D5B",
"c%	c #525045",
"d%	c #393836",
"e%	c #3A3737",
"f%	c #423D3D",
"g%	c #7C6A6A",
"h%	c #8C7876",
"i%	c #726361",
"j%	c #2A2925",
"k%	c #202020",
"l%	c #343132",
"m%	c #4D4545",
"n%	c #6A5C5C",
"o%	c #7D6B6B",
"p%	c #232323",
"q%	c #1C1C1D",
"r%	c #141413",
"s%	c #222122",
"t%	c #2D2B2B",
"u%	c #363132",
"v%	c #453D3E",
"w%	c #504646",
"x%	c #443D3C",
"y%	c #393534",
"z%	c #282829",
"A%	c #202121",
"B%	c #181918",
"C%	c #292A29",
"D%	c #252724",
"E%	c #1D1E1D",
"F%	c #222925",
"G%	c #29322D",
"H%	c #1E1E1D",
"I%	c #212221",
"J%	c #404842",
"K%	c #47524A",
"L%	c #2F3531",
"M%	c #333333",
"N%	c #222223",
"O%	c #2C2C2C",
"P%	c #2F2F2E",
"Q%	c #3D3F3D",
"R%	c #4C514C",
"S%	c #48534A",
"T%	c #39453D",
"U%	c #45534A",
"V%	c #546158",
"W%	c #272C28",
"X%	c #3F4D44",
"Y%	c #637267",
"Z%	c #6E7A70",
"`%	c #515852",
" &	c #2E2E2D",
".&	c #2E2E2E",
"+&	c #2B2B2B",
"@&	c #262626",
"#&	c #2B2C2C",
"$&	c #252625",
"%&	c #555454",
"&&	c #5F615E",
"*&	c #3B453D",
"=&	c #445048",
"-&	c #5E685F",
";&	c #5C675E",
">&	c #3F4942",
",&	c #3C473F",
"'&	c #455149",
")&	c #515F55",
"!&	c #6A756B",
"~&	c #606860",
"{&	c #636A62",
"]&	c #60665F",
"^&	c #474A45",
"/&	c #222221",
"(&	c #373736",
"_&	c #2B2C2B",
":&	c #333432",
"<&	c #434842",
"[&	c #485149",
"}&	c #3F4A42",
"|&	c #3A443D",
"1&	c #354039",
"2&	c #343F38",
"3&	c #4D5A51",
"4&	c #48554C",
"5&	c #3E4740",
"6&	c #494D48",
"7&	c #666661",
"8&	c #61625C",
"9&	c #545A52",
"0&	c #434741",
"a&	c #525151",
"b&	c #B1AFAD",
"c&	c #D4D2CD",
"d&	c #D6D5D0",
"e&	c #B8B6B2",
"f&	c #393A3A",
"g&	c #333532",
"h&	c #373936",
"i&	c #474C46",
"j&	c #4F594F",
"k&	c #455148",
"l&	c #414E45",
"m&	c #425248",
"n&	c #435248",
"o&	c #3C3D39",
"p&	c #848081",
"q&	c #CFCCC8",
"r&	c #E0DFD8",
"s&	c #DFDED7",
"t&	c #DADAD3",
"u&	c #ADABA7",
"v&	c #7A7676",
"w&	c #B5B2B0",
"x&	c #DAD8D3",
"y&	c #E0DED8",
"z&	c #E1DFD9",
"A&	c #DCDAD4",
"B&	c #CBC8C4",
"C&	c #B0ACAA",
"D&	c #4A4B4E",
"E&	c #4B4D50",
"F&	c #3B3D3E",
"G&	c #323232",
"H&	c #353634",
"I&	c #3A3D39",
"J&	c #434742",
"K&	c #4E564D",
"L&	c #535C53",
"M&	c #414740",
"N&	c #575557",
"O&	c #A4A2A2",
"P&	c #D7D6D1",
"Q&	c #DEDED7",
"R&	c #DDDCD6",
"S&	c #DCDCD6",
"T&	c #E2E1DB",
"U&	c #B9B6B2",
"V&	c #8A8787",
"W&	c #969494",
"X&	c #C2BEBB",
"Y&	c #CDCAC6",
"Z&	c #D0CDC9",
"`&	c #D2CFCA",
" *	c #B5B1AF",
".*	c #474648",
"+*	c #4F5053",
"@*	c #505255",
"#*	c #434548",
"$*	c #3E4042",
"%*	c #3A3B3D",
"&*	c #383939",
"**	c #3B3D3C",
"=*	c #38393A",
"-*	c #504F52",
";*	c #787577",
">*	c #A7A5A3",
",*	c #C1BFBB",
"'*	c #C7C5C1",
")*	c #C9C7C3",
"!*	c #CAC7C3",
"~*	c #D2CECA",
"{*	c #888585",
"]*	c #868484",
"^*	c #C5C2BF",
"/*	c #D0CEC9",
"(*	c #C4C1BD",
"_*	c #A7A3A0",
":*	c #505154",
"<*	c #525457",
"[*	c #4E4F53",
"}*	c #494B4E",
"|*	c #5E5D5F",
"1*	c #A29F9D",
"2*	c #B4B1AE",
"3*	c #BDBAB7",
"4*	c #C8C5C1",
"5*	c #C2BFBC",
"                                                            . + @ # $ + %         & + * @ + &   ",
"                                                            = & @ - ; > &           & , *   &   ",
"                                  ' )                           ! ~ ~ { ]           ^ / (       ",
"                                    _ : <                     [ } | 1 2 3 4 5 5 1 6 7 8 9 } 0   ",
"    a b c                             d e f                   g h   + - i j 5 5 k @ >   l m n   ",
"  o p q                                 r s t u               v       # - w 5 | x *         y   ",
"  z A B                 C D E F G       H I J K                       & i L 5 5 M N             ",
"O P Q R           S T U V W X Y Z `  ...+.@.#.$.%.                      * &.5 | *.              ",
"=.-.;.>.        ,.'.).!.~.{.].^./.(._.:.<.[.}.|.1.                        2.| | 3.              ",
"4.5.6.7.8.9.0.a.b.).c.d.e.f.g.h.i.j.k.l.m.n.}.o.p.                        q.| | r.              ",
"4.s.t.u.v.w.x.y.z.e.A.B.C.D.E.F.G.H.I.J.K.L.M.N.O.                      + P.5 5 Q.+             ",
"R.S.,.T.U.V.W.X.Y.A.Z.Y.`. +.+++@+#+$+%+&+*+=+-+;+                    & * >+5 5 L i =           ",
",+'+)+!+~+z.{+Y.]+A.d.^+/+(+_+:+<+[+}+|+1+2+3+4+I                     * +   5 | 5+- @           ",
"  ,.6+S.S.7+8+9+0+a+b+c+d+e+f+g+h+i+j+k+l+m+n+o+p+                  . ,     5 5 q+i - >         ",
"    r+s+t+S.u+v+w+x+y+z+A+B+C+D+E+F+G+H+I+J+K+L+M+                N N+O+  P+5 Q+R++ S+S+N       ",
"      T+U+R.s+6+P V+W+X+Y+Z+`+ @.@+@@@#@$@%@&@*@=@                , =   -@h m m ;@>@,@S+i       ",
"          '+'@t+v+V+)@!@Y+~@{@]@^@/@(@T+_@:@'@<@[@}@        > + # # . |@        1@2@3@S+- @ + & ",
"          4@4.S.5@6@{+X+7@8@9@0@a@b@c@@@d@e@f@g@h@i@j@      . + k@+ + >         l@> + * $ k@+ = ",
"          m@n@t+T o@W+p@q@A+r@s@t@u@v@w@x@y@v.z@A@Y+B@                                          ",
"          C@D@'+E@F@A.G@}.H@I@J@K@L@M@N@O@P@Q@R@I.S@T@U@    V@W@                                ",
"            X@Y@Z@`@ #y+.#x.+#@###$#%#&#*#X.=#I@A@Y+-#  ;#>#,#                                  ",
"            U X@'#)#].y+!#v.|.~#{#{###H@]#^#/#(#_#:#<#  [#      }#                              ",
"              =.D@|#1#2#A 3#4#5#6#R@+#7###8#9#0#a#b#  c#d#    e#f#                              ",
"                U+m@s.g#h#i#j#k#l#_.#.m#n#o#p#q#      r#s#t#u#v#                                ",
"                  w#t+x#y#z#A#B#C#D#E#F#G#H#          I#J#K#L#        M#N#                      ",
"                    U+O#P#Q#R#y#S#:.T#U#      V#W#X#Y#Z#`# $.$    +$@$#$                        ",
"                    $$%$&$*$*$=$-$;$>$,$      '$)$!$~${$    ]$^$/$($                            ",
"                  )#)._$:$v.<$S@[${#~#}$  |$1$2$[.3$4$5$                                        ",
"                  6$7$8$9$0$<$~#a$=#_#b$c$,+c$d$e$f$Q@g$                                        ",
"                h$'@i$j$k$s l$u._#m$T@X#n$o$p$r q$r$s$t$                                        ",
"                u$=.r+p#v$w$x$` y$z$A$B$C$D$E$F$G$H$I$                                          ",
"                J$'+!+K$L$M$V##.a$Q@A$y$N$O$P$Q$R$                                              ",
"                '+S$T$U$D$V$x$W$f X$W#X#J Y$Z$                                                  ",
"                H `$Z@s. %.%+%@%#%$%A#A#0#Z$                                                    ",
"                  %%'.&%)+*%=%-%;%>%x$;%,%*#                                                    ",
"                '%)%,.!%~%{%]%r+^%/%(%_%:%<%                                                    ",
"                [%,.}%|%1%2%3%4%5%6%7% +8%9%                                                    ",
"                0%a%b%c%d%e%f%z#Z g%|.Q@h%i%                                                    ",
"              T %%z j%k%o$l%O$m%n%o%R@a$i.                                                      ",
"            p%q%r%`$'.|#S.s%t%u%v%h#w%x%y%                                                      ",
"          ,+z%A%B%]%C%D%E%B%F%G%H%I%J%K%L%                                                      ",
"      M%C%z%N%7+O%P%Q%R%S%T%U%V%W%X%Y%Z%`%                                                      ",
" &.&+&@&#&.&      $&%&&&*&=&-&;&>&,&'&)&!&~&{&]&^&F                                             ",
"/&P%(&          ,+_&:&<&[&}&|&1&2&3&4&5&6&7&8&9&0&a&b&c&d&3+e&                                  ",
"                f&o g&h&i&j&k&l&m&n&o&p&q&r&s&t&u&v&w&x&y&z&A&B&C&                              ",
"                D&E&F&G&H&I&J&K&L&M&N&O&P&Q&R&S&T&U&V&W&X&Y&Z&`& *                              ",
"                  .*+*@*#*$*%*&***=*-*;*>*,*'*)*!*~*{*]*^*/*(*_*                                ",
"                        :*<*+*:*[*}*}*|*1*2*3*4*Z&5*                                            "};
