/* XPM */
static char * netsurf32_xpm[] = {
"35 36 395 2",
"  	c None",
". 	c #000000",
"+ 	c #1F2223",
"@ 	c #414547",
"# 	c #45484A",
"$ 	c #424547",
"% 	c #2C2F31",
"& 	c #181919",
"* 	c #606466",
"= 	c #949A9C",
"- 	c #AEB5B7",
"; 	c #B5BCBF",
"> 	c #B9C1C4",
", 	c #B7BFC3",
"' 	c #B4BCC0",
") 	c #ACB5B9",
"! 	c #A3ACB0",
"~ 	c #8B9397",
"{ 	c #666C6F",
"] 	c #222526",
"^ 	c #050505",
"/ 	c #7D8183",
"( 	c #B6BDBF",
"_ 	c #C6CDCF",
": 	c #C4CBCD",
"< 	c #C1C8CB",
"[ 	c #BFC6C9",
"} 	c #BBC3C7",
"| 	c #B8C0C4",
"1 	c #B5BEC2",
"2 	c #B2BBBF",
"3 	c #AFB8BD",
"4 	c #ACB5BA",
"5 	c #A9B3B8",
"6 	c #A1AAAF",
"7 	c #7A8185",
"8 	c #2E3234",
"9 	c #383B3C",
"0 	c #B9BFC1",
"a 	c #CBD1D3",
"b 	c #C8CFD1",
"c 	c #C3CACD",
"d 	c #C0C7CA",
"e 	c #BDC5C8",
"f 	c #B9C1C5",
"g 	c #B6BFC3",
"h 	c #B0B9BE",
"i 	c #ADB6BB",
"j 	c #AAB3B8",
"k 	c #A7B1B6",
"l 	c #A4AEB3",
"m 	c #9AA4AA",
"n 	c #60676B",
"o 	c #030303",
"p 	c #010101",
"q 	c #7F8385",
"r 	c #969B9D",
"s 	c #3E4142",
"t 	c #CBD2D4",
"u 	c #CDD3D5",
"v 	c #C7CED0",
"w 	c #C4CBCE",
"x 	c #C1C9CC",
"y 	c #B8C0C3",
"z 	c #B4BDC1",
"A 	c #B1BABE",
"B 	c #AEB7BB",
"C 	c #ABB4B9",
"D 	c #C9CFD2",
"E 	c #A6B0B5",
"F 	c #A1ABB1",
"G 	c #9DA8AE",
"H 	c #798287",
"I 	c #151719",
"J 	c #000001",
"K 	c #8A8F90",
"L 	c #D1D7D8",
"M 	c #9BA0A1",
"N 	c #7E8283",
"O 	c #D2D8D9",
"P 	c #CED5D7",
"Q 	c #CCD2D4",
"R 	c #C9CFD1",
"S 	c #C5CCCF",
"T 	c #C2CACD",
"U 	c #BFC7CA",
"V 	c #B5BDC1",
"W 	c #B2BABE",
"X 	c #AEB7BC",
"Y 	c #B6BEC2",
"Z 	c #FBFBFB",
"` 	c #CED3D7",
" .	c #A2ACB2",
"..	c #9EA9AF",
"+.	c #80898E",
"@.	c #16181A",
"#.	c #7D8182",
"$.	c #CFD5D7",
"%.	c #D4DADB",
"&.	c #D7DCDD",
"*.	c #D6DCDD",
"=.	c #D3D9DB",
"-.	c #D0D6D7",
";.	c #CAD1D3",
">.	c #BCC4C7",
",.	c #CAD0D3",
"'.	c #CFD4D7",
").	c #DDE1E3",
"!.	c #FEFFFF",
"~.	c #F7F8F9",
"{.	c #D6DADD",
"].	c #EEEFF0",
"^.	c #F5F6F6",
"/.	c #9BA6AC",
"(.	c #778085",
"_.	c #040405",
":.	c #555859",
"<.	c #C7CDCF",
"[.	c #D0D6D8",
"}.	c #CDD2D5",
"|.	c #FDFDFD",
"1.	c #FCFDFD",
"2.	c #E6E9EB",
"3.	c #97A2A9",
"4.	c #949FA6",
"5.	c #5F676C",
"6.	c #0D0E0F",
"7.	c #AFB5B8",
"8.	c #CCD3D5",
"9.	c #C8CED0",
"0.	c #BBC0C1",
"a.	c #E5E7E9",
"b.	c #A4ADB3",
"c.	c #949FA5",
"d.	c #8D989F",
"e.	c #2F3437",
"f.	c #787C7E",
"g.	c #C7CED1",
"h.	c #CDD4D6",
"i.	c #ACB1B3",
"j.	c #191B1D",
"k.	c #CED4D6",
"l.	c #C5CCCE",
"m.	c #BAC2C6",
"n.	c #F1F2F3",
"o.	c #F8F9FA",
"p.	c #D9DCDF",
"q.	c #727B81",
"r.	c #0C0D0E",
"s.	c #AFB6B9",
"t.	c #464A4C",
"u.	c #C0C8CB",
"v.	c #BAC2C5",
"w.	c #D4D9DC",
"x.	c #F8F9F9",
"y.	c #CDD2D6",
"z.	c #919DA4",
"A.	c #8B969D",
"B.	c #303538",
"C.	c #5A5E60",
"D.	c #C6CDD0",
"E.	c #999FA1",
"F.	c #838889",
"G.	c #CAD0D2",
"H.	c #C9D0D2",
"I.	c #EFF1F2",
"J.	c #FEFEFE",
"K.	c #FAFAFA",
"L.	c #A7B0B6",
"M.	c #939EA5",
"N.	c #8F9BA2",
"O.	c #8C98A0",
"P.	c #626A6F",
"Q.	c #8A9093",
"R.	c #BCC4C8",
"S.	c #D1D6D8",
"T.	c #BCC2C7",
"U.	c #929DA4",
"V.	c #8F9AA1",
"W.	c #8C989F",
"X.	c #7B868D",
"Y.	c #A7AFB2",
"Z.	c #C2C9CC",
"`.	c #B0B9BD",
" +	c #D8DCDE",
".+	c #F5F6F7",
"++	c #E2E4E6",
"@+	c #919CA3",
"#+	c #8E9AA1",
"$+	c #8B979E",
"%+	c #859198",
"&+	c #272B2E",
"*+	c #141617",
"=+	c #B0B8BC",
"-+	c #BEC6C9",
";+	c #B4BCBF",
">+	c #AEB5B8",
",+	c #BEC5C8",
"'+	c #B3BBBF",
")+	c #E9EBEC",
"!+	c #EEF0F1",
"~+	c #D3D7DA",
"{+	c #E6E8EA",
"]+	c #EAECED",
"^+	c #99A4AA",
"/+	c #B3BBC0",
"(+	c #C6CBCF",
"_+	c #8D99A0",
":+	c #8A969D",
"<+	c #86929A",
"[+	c #3C4246",
"}+	c #3B3E40",
"|+	c #B3BCC0",
"1+	c #BBC3C6",
"2+	c #868C8E",
"3+	c #525658",
"4+	c #BDC4C7",
"5+	c #A7B0B5",
"6+	c #A3ADB3",
"7+	c #C2C8CD",
"8+	c #95A0A6",
"9+	c #929EA5",
"0+	c #89959C",
"a+	c #85929A",
"b+	c #4F575C",
"c+	c #989FA2",
"d+	c #1C1E20",
"e+	c #A0AAAF",
"f+	c #BDC3C8",
"g+	c #96A1A8",
"h+	c #909CA3",
"i+	c #8E99A0",
"j+	c #88949B",
"k+	c #849199",
"l+	c #545D63",
"m+	c #434749",
"n+	c #9FA6AA",
"o+	c #3B3F41",
"p+	c #B0B8BB",
"q+	c #A5AEB3",
"r+	c #A3ADB2",
"s+	c #A0AAB0",
"t+	c #9BA5AB",
"u+	c #89959D",
"v+	c #839098",
"w+	c #535B61",
"x+	c #333739",
"y+	c #AAB3B7",
"z+	c #AFB8BC",
"A+	c #ADB6BA",
"B+	c #A5AFB4",
"C+	c #A1ABB0",
"D+	c #9EA8AE",
"E+	c #98A3A9",
"F+	c #96A1A7",
"G+	c #909BA2",
"H+	c #6F7980",
"I+	c #232729",
"J+	c #09090A",
"K+	c #A2ABB0",
"L+	c #AAB4B9",
"M+	c #A9B2B7",
"N+	c #9CA6AC",
"O+	c #99A3A9",
"P+	c #707B82",
"Q+	c #1B1E20",
"R+	c #8F979B",
"S+	c #90979B",
"T+	c #9AA5AB",
"U+	c #97A2A8",
"V+	c #87939B",
"W+	c #849098",
"X+	c #4D5459",
"Y+	c #4B5358",
"Z+	c #71777B",
"`+	c #A8B1B6",
" @	c #A8B2B7",
".@	c #9CA5AA",
"+@	c #090A0A",
"@@	c #929A9E",
"#@	c #8A969E",
"$@	c #808B93",
"%@	c #859199",
"&@	c #828F97",
"*@	c #7E8A92",
"=@	c #6D7880",
"-@	c #3B3F42",
";@	c #A6AFB4",
">@	c #505558",
",@	c #5F6467",
"'@	c #9CA7AD",
")@	c #939EA4",
"!@	c #778188",
"~@	c #4C5357",
"{@	c #1D1F21",
"]@	c #7D8991",
"^@	c #818E96",
"/@	c #7E8B94",
"(@	c #525A60",
"_@	c #020203",
":@	c #7A8286",
"<@	c #899297",
"[@	c #6D7579",
"}@	c #9DA7AD",
"|@	c #919CA2",
"1@	c #363B3F",
"2@	c #464D51",
"3@	c #717B82",
"4@	c #7F8C94",
"5@	c #79858D",
"6@	c #1E2123",
"7@	c #000101",
"8@	c #313436",
"9@	c #7F888D",
"0@	c #9FA9AF",
"a@	c #95A0A7",
"b@	c #767F85",
"c@	c #555C60",
"d@	c #262A2C",
"e@	c #727C82",
"f@	c #8B979F",
"g@	c #828E95",
"h@	c #828E96",
"i@	c #7F8C95",
"j@	c #7D8A92",
"k@	c #5C656B",
"l@	c #44494C",
"m@	c #838C92",
"n@	c #6D757A",
"o@	c #42474A",
"p@	c #4E5458",
"q@	c #727A7F",
"r@	c #454B4E",
"s@	c #3A3F42",
"t@	c #757E83",
"u@	c #676F74",
"v@	c #52595E",
"w@	c #6A7379",
"x@	c #828D94",
"y@	c #87939A",
"z@	c #7D8A93",
"A@	c #758189",
"B@	c #26292B",
"C@	c #8D989E",
"D@	c #6B7378",
"E@	c #5D6367",
"F@	c #585E62",
"G@	c #43494C",
"H@	c #939DA3",
"I@	c #61686D",
"J@	c #6D767B",
"K@	c #828C93",
"L@	c #88949C",
"M@	c #808D95",
"N@	c #7B8891",
"O@	c #41474C",
"P@	c #414649",
"Q@	c #8F9AA0",
"R@	c #8D979D",
"S@	c #24282A",
"T@	c #656D71",
"U@	c #7C8991",
"V@	c #8C979D",
"W@	c #757F85",
"X@	c #444A4D",
"Y@	c #838F97",
"Z@	c #5A6369",
"`@	c #3D4246",
" #	c #808D96",
".#	c #7C8992",
"+#	c #79868F",
"@#	c #4F575D",
"##	c #1D2023",
"$#	c #677075",
"%#	c #6D787F",
"&#	c #373C40",
"*#	c #323639",
"=#	c #697379",
"-#	c #464C50",
";#	c #40474B",
">#	c #7E8B93",
",#	c #6C777E",
"'#	c #454C50",
")#	c #060606",
"!#	c #191C1E",
"~#	c #474E52",
"{#	c #626C72",
"]#	c #626B72",
"^#	c #181A1B",
"/#	c #77838B",
"(#	c #6F7A82",
"_#	c #646F76",
":#	c #50585E",
"<#	c #292D2F",
"[#	c #020202",
"                                                                      ",
"                        . . . + @ # $ % . . .                         ",
"                    . & * = - ; > , ' ) ! ~ { ] . .                   ",
"                . ^ / ( _ : < [ } | 1 2 3 4 5 6 7 8 .                 ",
"              . 9 . 0 a b _ c d e f g ' h i j k l m n o .             ",
"            p q r s t u a v w x [ } y z A B C D E F G H I .           ",
"          J K L M N O P Q R S T U } | V W X Y Z `  ...i +.@..         ",
"        . #.$.%.&.*.=.-.u ;._ c U >.> ,.'.V ).!.~.{.].^./.(._..       ",
"      . :.<.[.%.*.*.=.[.u ;._ c U >.> }.!.|.1.!.!.!.!.2.3.4.5..       ",
"      6.7.8.$.9.0.%.O P Q R S T U >.> | ~.!.!.!.!.!.!.a.b.c.d.e..     ",
"    . f.g.a h.i.j.k.$.u a g.l.x [ } y m.n.!.!.!.!.!.!.!.o.p.c.q..     ",
"    r.s._ R t r t.Q 8.a b _ c u.e v.w.x.!.!.!.!.!.!.!.!.x.y.z.A.B..   ",
"  . C.x w D.b E.F.G.H.g._ : < [ } > '.I.J.!.!.!.!.!.!.K.L.M.N.O.P..   ",
"  . Q.U x : S _ v D._ l.c x U R.f , ' W S.!.!.!.!.!.!.!.T.U.V.W.X..   ",
"  . Y.e U < Z.c : : c Z.u.[ R.v.y 1 2 `. +!.!.!.!.J..+|.++@+#+$+%+&+  ",
"  *+=+m.>.-+U ;+>+u.d [ ,+>.f y 1 '+h i )+!+~+{+!.]+^+/+(+V._+:+<+[+. ",
"  }+|+, > 1+>.2+3+4+R.} m.> , 1 '+h X ) X 5+6+X x.7+3.8+9+N.W.0+a+b+. ",
"  t.|+z Y , | c+d+y > | , Y z '+h X 4 5 k l  .e+f+m g+c.h+i+$+j+k+l+. ",
"  m+`.W |+z 1 n+o+p+1 V z '+W `.B 4 5 k q+r+s+G t+3.8+U.N.W.u+<+v+w+. ",
"  x+y+z+`.W 2 2 |+'+'+W A `.z+A+C 5 k B+r+C+D+/.E+F+M.G+#+$+j+k+H+I+. ",
"  J+K+) A+B z+3 3 3 3 X i A+) L+M+k B+r+s+..N+O+g+4.z.V.W.0+<+P+Q+. . ",
"  . R+M+j C ) ) M+S+j ) L+j M+k B+l  .s+D+N+T+U+4.U.N._+:+V+W+X+Y+I   ",
"  . Z+E k `+ @M+.@+@@@ @`+k B+l r+F e+G N+^+U+4.U.G+i+#@$@%@&@*@=@.   ",
"  . -@C+6+l B+;@B+>@,@B+l 6+r+F e+D+'@t+O+g+4.)@G+#+!@~@{@]@^@/@(@.   ",
"    _@:@D+F  . . .<@[@s+F s+e+..}@N+m 3.F+c.|@i+i+$+1@2@3@^@4@5@6@.   ",
"    . 7@8@9@..0@0@e+e+..D+}@'@/.T+E+g+a@b@c@d@e@f@0+g@W+h@i@j@k@.     ",
"      . l@m@/.N+n@o@p@m@^+m q@r@s@t@c.9+u@v@w@x@0+y@W+h@i@z@A@d+.     ",
"      . B@C@3.E++.D@E@F@G@H@t@I@J@K@@+N.#+W.$+L@<+W+h@M@z@N@O@.       ",
"        . P@Q@8+8+8+8+R@S@T@)@U.h+N.#+_+$+u+V+%@v+h@M@z@U@l+.         ",
"          . r@V@U.U.U.z.W@X@#+V.i+O.$+:+j+<+%@Y@^@4@z@N@Z@_@          ",
"            . `@x@V.V.#+i+A.O.f@$+u+j+y@a+v+h@ #/@.#+#@#_@            ",
"              . ##$#:+$+$+:+u+x@x@<+%@v+&@^@i@z@.#%#&#.               ",
"                . J *#=#g@<+a+-#;#4@h@ #i@>#N@,#'#)#.                 ",
"                    . . !#~#{#]#^#'#/#(#_#:#<#[#.                     ",
"                          . . . . . . . . . .                         ",
"                                                                      "};
